<svg width="24" height="24" viewBox="0 0 24 24" fill="none" xmlns="http://www.w3.org/2000/svg">
<path fill-rule="evenodd" clip-rule="evenodd" d="M6.74263 0C3.01878 0 0 3.01878 0 6.74263V17.2574C0 20.9812 3.01878 24 6.74263 24H17.2574C20.9812 24 24 20.9812 24 17.2574V6.74263C24 3.01878 20.9812 0 17.2574 0H6.74263ZM6.64874 2.21618C4.20089 2.21618 2.21652 4.20056 2.21652 6.64841V17.3517C2.21652 19.7996 4.20089 21.784 6.64874 21.784H17.3049C19.7528 21.784 21.7371 19.7996 21.7371 17.3517V6.6484C21.7371 4.20056 19.7528 2.21618 17.3049 2.21618H6.64874Z" fill="#959698"/>
<path fill-rule="evenodd" clip-rule="evenodd" d="M11.9999 18.2004C15.3983 18.2004 18.1532 15.4455 18.1532 12.0472C18.1532 8.64882 15.3983 5.89392 11.9999 5.89392C8.60158 5.89392 5.84668 8.64882 5.84668 12.0472C5.84668 15.4455 8.60158 18.2004 11.9999 18.2004ZM11.9995 16.0315C14.226 16.0315 16.0309 14.2266 16.0309 12.0001C16.0309 9.77356 14.226 7.96863 11.9995 7.96863C9.77302 7.96863 7.96808 9.77356 7.96808 12.0001C7.96808 14.2266 9.77302 16.0315 11.9995 16.0315Z" fill="#959698"/>
<circle cx="18.4596" cy="5.58753" r="1.43811" fill="#959698"/>
</svg>
